<svg xmlns="http://www.w3.org/2000/svg" x="0px" y="0px"
width="32" height="32"
viewBox="0 0 32 32">
<path d="M 16 3 C 12.98787 3 10.392228 4.9150008 9.6914062 7.5761719 C 8.7258231 7.6733425 7.7603276 7.7838474 6.7949219 7.9257812 C 4.8723061 8.2084821 3.2384497 9.5991664 2.7753906 11.525391 A 1.0001 1.0001 0 0 0 2.7753906 11.527344 C 1.742119 15.834368 1.742119 20.165632 2.7753906 24.472656 C 3.2382479 26.399316 4.8702912 27.791509 6.7929688 28.074219 C 12.927904 28.976176 19.070143 28.976176 25.205078 28.074219 C 27.127694 27.791518 28.76155 26.400833 29.224609 24.474609 A 1.0001 1.0001 0 0 0 29.224609 24.472656 C 30.257881 20.165632 30.257881 15.834368 29.224609 11.527344 C 28.995215 10.57248 28.478059 9.7492615 27.78125 9.1269531 A 1.0001 1.0001 0 0 0 27.416016 8.84375 C 26.7736 8.371373 26.01957 8.0452567 25.207031 7.9257812 C 24.241148 7.7837772 23.27492 7.6733684 22.308594 7.5761719 C 21.607771 4.9150008 19.01213 3 16 3 z M 16 5 C 17.87195 5 19.413755 6.0073603 20.103516 7.390625 C 18.735567 7.3012022 17.367869 7.25 16 7.25 C 14.632131 7.25 13.264003 7.3012022 11.896484 7.390625 C 12.586245 6.0073603 14.12805 5 16 5 z M 16 9.25 C 17.756845 9.25 19.514097 9.3352879 21.271484 9.4882812 A 1.0001 1.0001 0 0 0 21.498047 9.5097656 A 1.0001 1.0001 0 0 0 21.5 9.5097656 C 22.638655 9.613179 23.777233 9.7388264 24.916016 9.90625 C 25.253934 9.9559375 25.570516 10.067999 25.861328 10.220703 C 25.048393 13.045823 22.69706 15.360661 19.601562 16.400391 C 19.106033 15.147686 17.795451 14.142578 16 14.142578 C 14.200967 14.142578 12.88969 15.151996 12.396484 16.408203 C 9.3002268 15.368174 6.9545912 13.043857 6.1425781 10.21875 C 6.4328066 10.066787 6.7492274 9.9557597 7.0859375 9.90625 C 8.228293 9.7383011 9.3698464 9.6133017 10.511719 9.5097656 A 1.0001 1.0001 0 0 0 10.730469 9.4882812 C 10.73176 9.4881688 10.733084 9.4883936 10.734375 9.4882812 C 12.489502 9.3355837 14.244855 9.25 16 9.25 z M 27.298828 12.087891 C 28.239177 16.069192 28.234526 20.02414 27.279297 24.005859 C 27.016356 25.099636 26.065447 25.924451 24.914062 26.09375 C 18.968998 26.967793 13.029049 26.967793 7.0839844 26.09375 C 5.9326619 25.92446 4.9838459 25.1012 4.7207031 24.005859 C 3.7656231 20.024764 3.761267 16.070513 4.7011719 12.089844 C 6.060771 15.1606 8.8865659 17.521256 12.365234 18.501953 C 12.82969 19.799503 14.158519 20.857422 16 20.857422 C 17.845064 20.857422 19.174794 19.795165 19.636719 18.494141 C 23.111917 17.51217 25.940207 15.156056 27.298828 12.087891 z M 16 16.142578 C 17.345663 16.142578 17.740813 16.741399 17.800781 17.337891 A 1.0001 1.0001 0 0 0 17.759766 17.914062 C 17.612027 18.415933 17.154763 18.857422 16 18.857422 C 15.028505 18.857422 14.547894 18.544242 14.330078 18.146484 A 1.0001777 1.0001777 0 0 0 14.230469 17.142578 C 14.35942 16.617818 14.802255 16.142578 16 16.142578 z"></path>
</svg>